<?xml version="1.0" ?><svg fill="none" height="132" viewBox="0 0 128 132" width="128" xmlns="http://www.w3.org/2000/svg"><g filter="url(#filter0_dd)"><path d="M90 116H100V118C100 119.105 99.1046 120 98 120H92C90.8954 120 90 119.105 90 118V116Z" fill="#602E00"/><path d="M28 116H38V118C38 119.105 37.1046 120 36 120H30C28.8954 120 28 119.105 28 118V116Z" fill="#602E00"/><g filter="url(#filter1_dd)"><path d="M108 14C108 10.6863 105.314 8 102 8H64V116H102C105.314 116 108 113.314 108 110V14Z" fill="url(#paint0_linear)"/></g><g filter="url(#filter2_dd)"><path d="M20 14C20 10.6863 22.6863 8 26 8H64V116H26C22.6863 116 20 113.314 20 110V14Z" fill="url(#paint1_linear)"/></g><path d="M80 116H102C105.314 116 108 113.314 108 110V54L80 116Z" fill="url(#paint2_linear)"/><path d="M64 8H26C22.6863 8 20 10.6863 20 14V110L64 8Z" fill="url(#paint3_linear)"/><g filter="url(#filter3_dd)"><path d="M56 58C56 56.8954 56.8954 56 58 56C59.1046 56 60 56.8954 60 58V66C60 67.1046 59.1046 68 58 68C56.8954 68 56 67.1046 56 66V58Z" fill="url(#paint4_linear)"/></g><g filter="url(#filter4_dd)"><path d="M68 58C68 56.8954 68.8954 56 70 56C71.1046 56 72 56.8954 72 58V66C72 67.1046 71.1046 68 70 68C68.8954 68 68 67.1046 68 66V58Z" fill="url(#paint5_linear)"/></g></g><defs><filter color-interpolation-filters="sRGB" filterUnits="userSpaceOnUse" height="144" id="filter0_dd" width="144" x="-6" y="-4"><feFlood flood-opacity="0" result="BackgroundImageFix"/><feColorMatrix in="SourceAlpha" type="matrix" values="0 0 0 0 0 0 0 0 0 0 0 0 0 0 0 0 0 0 127 0"/><feOffset dx="2" dy="4"/><feGaussianBlur stdDeviation="4"/><feColorMatrix type="matrix" values="0 0 0 0 0 0 0 0 0 0 0 0 0 0 0 0 0 0 0.2 0"/><feBlend in2="BackgroundImageFix" mode="normal" result="effect1_dropShadow"/><feColorMatrix in="SourceAlpha" type="matrix" values="0 0 0 0 0 0 0 0 0 0 0 0 0 0 0 0 0 0 127 0"/><feOffset dy="2"/><feGaussianBlur stdDeviation="2"/><feColorMatrix type="matrix" values="0 0 0 0 0 0 0 0 0 0 0 0 0 0 0 0 0 0 0.2 0"/><feBlend in2="effect1_dropShadow" mode="normal" result="effect2_dropShadow"/><feBlend in="SourceGraphic" in2="effect2_dropShadow" mode="normal" result="shape"/></filter><filter color-interpolation-filters="sRGB" filterUnits="userSpaceOnUse" height="112" id="filter1_dd" width="48" x="62" y="7"><feFlood flood-opacity="0" result="BackgroundImageFix"/><feColorMatrix in="SourceAlpha" type="matrix" values="0 0 0 0 0 0 0 0 0 0 0 0 0 0 0 0 0 0 127 0"/><feOffset dy="1"/><feGaussianBlur stdDeviation="0.5"/><feColorMatrix type="matrix" values="0 0 0 0 0 0 0 0 0 0 0 0 0 0 0 0 0 0 0.2 0"/><feBlend in2="BackgroundImageFix" mode="normal" result="effect1_dropShadow"/><feColorMatrix in="SourceAlpha" type="matrix" values="0 0 0 0 0 0 0 0 0 0 0 0 0 0 0 0 0 0 127 0"/><feOffset dy="1"/><feGaussianBlur stdDeviation="1"/><feColorMatrix type="matrix" values="0 0 0 0 0 0 0 0 0 0 0 0 0 0 0 0 0 0 0.1 0"/><feBlend in2="effect1_dropShadow" mode="normal" result="effect2_dropShadow"/><feBlend in="SourceGraphic" in2="effect2_dropShadow" mode="normal" result="shape"/></filter><filter color-interpolation-filters="sRGB" filterUnits="userSpaceOnUse" height="112" id="filter2_dd" width="48" x="18" y="7"><feFlood flood-opacity="0" result="BackgroundImageFix"/><feColorMatrix in="SourceAlpha" type="matrix" values="0 0 0 0 0 0 0 0 0 0 0 0 0 0 0 0 0 0 127 0"/><feOffset dy="1"/><feGaussianBlur stdDeviation="0.5"/><feColorMatrix type="matrix" values="0 0 0 0 0 0 0 0 0 0 0 0 0 0 0 0 0 0 0.2 0"/><feBlend in2="BackgroundImageFix" mode="normal" result="effect1_dropShadow"/><feColorMatrix in="SourceAlpha" type="matrix" values="0 0 0 0 0 0 0 0 0 0 0 0 0 0 0 0 0 0 127 0"/><feOffset dy="1"/><feGaussianBlur stdDeviation="1"/><feColorMatrix type="matrix" values="0 0 0 0 0 0 0 0 0 0 0 0 0 0 0 0 0 0 0.1 0"/><feBlend in2="effect1_dropShadow" mode="normal" result="effect2_dropShadow"/><feBlend in="SourceGraphic" in2="effect2_dropShadow" mode="normal" result="shape"/></filter><filter color-interpolation-filters="sRGB" filterUnits="userSpaceOnUse" height="16" id="filter3_dd" width="8" x="54" y="55"><feFlood flood-opacity="0" result="BackgroundImageFix"/><feColorMatrix in="SourceAlpha" type="matrix" values="0 0 0 0 0 0 0 0 0 0 0 0 0 0 0 0 0 0 127 0"/><feOffset dy="1"/><feGaussianBlur stdDeviation="0.5"/><feColorMatrix type="matrix" values="0 0 0 0 0 0 0 0 0 0 0 0 0 0 0 0 0 0 0.2 0"/><feBlend in2="BackgroundImageFix" mode="normal" result="effect1_dropShadow"/><feColorMatrix in="SourceAlpha" type="matrix" values="0 0 0 0 0 0 0 0 0 0 0 0 0 0 0 0 0 0 127 0"/><feOffset dy="1"/><feGaussianBlur stdDeviation="1"/><feColorMatrix type="matrix" values="0 0 0 0 0 0 0 0 0 0 0 0 0 0 0 0 0 0 0.1 0"/><feBlend in2="effect1_dropShadow" mode="normal" result="effect2_dropShadow"/><feBlend in="SourceGraphic" in2="effect2_dropShadow" mode="normal" result="shape"/></filter><filter color-interpolation-filters="sRGB" filterUnits="userSpaceOnUse" height="16" id="filter4_dd" width="8" x="66" y="55"><feFlood flood-opacity="0" result="BackgroundImageFix"/><feColorMatrix in="SourceAlpha" type="matrix" values="0 0 0 0 0 0 0 0 0 0 0 0 0 0 0 0 0 0 127 0"/><feOffset dy="1"/><feGaussianBlur stdDeviation="0.5"/><feColorMatrix type="matrix" values="0 0 0 0 0 0 0 0 0 0 0 0 0 0 0 0 0 0 0.2 0"/><feBlend in2="BackgroundImageFix" mode="normal" result="effect1_dropShadow"/><feColorMatrix in="SourceAlpha" type="matrix" values="0 0 0 0 0 0 0 0 0 0 0 0 0 0 0 0 0 0 127 0"/><feOffset dy="1"/><feGaussianBlur stdDeviation="1"/><feColorMatrix type="matrix" values="0 0 0 0 0 0 0 0 0 0 0 0 0 0 0 0 0 0 0.1 0"/><feBlend in2="effect1_dropShadow" mode="normal" result="effect2_dropShadow"/><feBlend in="SourceGraphic" in2="effect2_dropShadow" mode="normal" result="shape"/></filter><linearGradient gradientUnits="userSpaceOnUse" id="paint0_linear" x1="86" x2="86" y1="8" y2="120"><stop stop-color="#8AEBF1"/><stop offset="1" stop-color="#90E2F4"/></linearGradient><linearGradient gradientUnits="userSpaceOnUse" id="paint1_linear" x1="42" x2="42" y1="8" y2="120"><stop stop-color="#8AEBF1"/><stop offset="1" stop-color="#90E2F4"/></linearGradient><linearGradient gradientUnits="userSpaceOnUse" id="paint2_linear" x1="108" x2="83.5" y1="116" y2="91"><stop stop-color="#74E3F2"/><stop offset="1" stop-color="#58C8DE"/></linearGradient><linearGradient gradientUnits="userSpaceOnUse" id="paint3_linear" x1="42" x2="42" y1="8" y2="113.778"><stop stop-color="#BFFFFB"/><stop offset="1" stop-color="#ACEFF3"/></linearGradient><linearGradient gradientUnits="userSpaceOnUse" id="paint4_linear" x1="58" x2="58" y1="68" y2="56"><stop stop-color="#BFFFFC"/><stop offset="1" stop-color="white"/></linearGradient><linearGradient gradientUnits="userSpaceOnUse" id="paint5_linear" x1="70" x2="70" y1="68" y2="56"><stop stop-color="#BFFFFC"/><stop offset="1" stop-color="white"/></linearGradient></defs></svg>