<?xml version="1.0" encoding="UTF-8" standalone="no"?>
<svg
   xmlns:dc="http://purl.org/dc/elements/1.1/"
   xmlns:cc="http://creativecommons.org/ns#"
   xmlns:rdf="http://www.w3.org/1999/02/22-rdf-syntax-ns#"
   xmlns:svg="http://www.w3.org/2000/svg"
   xmlns="http://www.w3.org/2000/svg"
   xmlns:sodipodi="http://sodipodi.sourceforge.net/DTD/sodipodi-0.dtd"
   xmlns:inkscape="http://www.inkscape.org/namespaces/inkscape"
   inkscape:export-ydpi="576"
   inkscape:export-xdpi="576"
   inkscape:export-filename="D:\Project Real\adnan #2.2\export Filled line\PNG\18 - Restaurant.png"
   width="64pt"
   height="64pt"
   viewBox="0 0 22.577778 22.577778"
   version="1.1"
   id="svg831"
   inkscape:version="1.0 (4035a4fb49, 2020-05-01)"
   sodipodi:docname="19 - Bathtub.svg">
  <defs
     id="defs825">
    <pattern
       id="EMFhbasepattern"
       patternUnits="userSpaceOnUse"
       width="6"
       height="6"
       x="0"
       y="0" />
    <pattern
       id="EMFhbasepattern-9"
       patternUnits="userSpaceOnUse"
       width="6"
       height="6"
       x="0"
       y="0" />
    <pattern
       id="EMFhbasepattern-0"
       patternUnits="userSpaceOnUse"
       width="6"
       height="6"
       x="0"
       y="0" />
    <pattern
       id="EMFhbasepattern-7"
       patternUnits="userSpaceOnUse"
       width="6"
       height="6"
       x="0"
       y="0" />
    <pattern
       id="EMFhbasepattern-2"
       patternUnits="userSpaceOnUse"
       width="6"
       height="6"
       x="0"
       y="0" />
    <pattern
       id="EMFhbasepattern-98"
       patternUnits="userSpaceOnUse"
       width="6"
       height="6"
       x="0"
       y="0" />
    <pattern
       id="EMFhbasepattern-6"
       patternUnits="userSpaceOnUse"
       width="6"
       height="6"
       x="0"
       y="0" />
    <pattern
       id="EMFhbasepattern-01"
       patternUnits="userSpaceOnUse"
       width="6"
       height="6"
       x="0"
       y="0" />
    <pattern
       id="EMFhbasepattern-07"
       patternUnits="userSpaceOnUse"
       width="6"
       height="6"
       x="0"
       y="0" />
    <pattern
       id="EMFhbasepattern-8"
       patternUnits="userSpaceOnUse"
       width="6"
       height="6"
       x="0"
       y="0" />
    <pattern
       id="EMFhbasepattern-4"
       patternUnits="userSpaceOnUse"
       width="6"
       height="6"
       x="0"
       y="0" />
    <pattern
       id="EMFhbasepattern-40"
       patternUnits="userSpaceOnUse"
       width="6"
       height="6"
       x="0"
       y="0" />
    <pattern
       id="EMFhbasepattern-08"
       patternUnits="userSpaceOnUse"
       width="6"
       height="6"
       x="0"
       y="0" />
    <pattern
       id="EMFhbasepattern-04"
       patternUnits="userSpaceOnUse"
       width="6"
       height="6"
       x="0"
       y="0" />
    <pattern
       id="EMFhbasepattern-014"
       patternUnits="userSpaceOnUse"
       width="6"
       height="6"
       x="0"
       y="0" />
    <pattern
       id="EMFhbasepattern-27"
       patternUnits="userSpaceOnUse"
       width="6"
       height="6"
       x="0"
       y="0" />
    <pattern
       id="EMFhbasepattern-09"
       patternUnits="userSpaceOnUse"
       width="6"
       height="6"
       x="0"
       y="0" />
    <pattern
       id="EMFhbasepattern-5"
       patternUnits="userSpaceOnUse"
       width="6"
       height="6"
       x="0"
       y="0" />
    <pattern
       id="EMFhbasepattern-018"
       patternUnits="userSpaceOnUse"
       width="6"
       height="6"
       x="0"
       y="0" />
  </defs>
  <sodipodi:namedview
     id="base"
     pagecolor="#ffffff"
     bordercolor="#666666"
     borderopacity="1.0"
     inkscape:pageopacity="0.0"
     inkscape:pageshadow="2"
     inkscape:zoom="6.2578125"
     inkscape:cx="42.666667"
     inkscape:cy="42.666667"
     inkscape:document-units="pt"
     inkscape:current-layer="layer1"
     showgrid="false"
     units="pt"
     inkscape:window-width="1366"
     inkscape:window-height="706"
     inkscape:window-x="-8"
     inkscape:window-y="-8"
     inkscape:window-maximized="1"
     inkscape:pagecheckerboard="true"
     inkscape:showpageshadow="false"
     inkscape:object-paths="true"
     inkscape:snap-intersection-paths="true"
     inkscape:snap-smooth-nodes="true"
     inkscape:snap-midpoints="true"
     showguides="true"
     inkscape:snap-bbox="true"
     inkscape:bbox-nodes="true"
     inkscape:snap-nodes="false"
     inkscape:snap-global="true"
     inkscape:document-rotation="0">
    <inkscape:grid
       type="xygrid"
       id="grid1378" />
    <sodipodi:guide
       position="0.97013831,21.607643"
       orientation="78.000048,0"
       id="guide1380"
       inkscape:locked="false" />
    <sodipodi:guide
       position="0.97013831,0.97013129"
       orientation="0,78.000005"
       id="guide1382"
       inkscape:locked="false" />
    <sodipodi:guide
       position="21.607639,0.97013129"
       orientation="-78.000048,0"
       id="guide1384"
       inkscape:locked="false" />
    <sodipodi:guide
       position="21.607639,21.607643"
       orientation="0,-78.000005"
       id="guide1386"
       inkscape:locked="false" />
  </sodipodi:namedview>
  <metadata
     id="metadata828">
    <rdf:RDF>
      <cc:Work
         rdf:about="">
        <dc:format>image/svg+xml</dc:format>
        <dc:type
           rdf:resource="http://purl.org/dc/dcmitype/StillImage" />
        <dc:title></dc:title>
      </cc:Work>
    </rdf:RDF>
  </metadata>
  <g
     inkscape:label="Icon"
     inkscape:groupmode="layer"
     id="layer1"
     transform="translate(0,-274.42223)">
    <g
       transform="matrix(1.2580466,0,0,1.2580466,-37.736901,-77.278395)"
       style="display:inline;stroke-width:0.794883"
       id="g1365">
      <g
         style="stroke-width:0.794883"
         id="g1454">
        <path
           id="path1333"
           d="m 43.185149,288.12077 c -0.650095,0 -1.093488,0.50078 -1.392771,1.02435 -0.259246,-0.14585 -0.545909,-0.26795 -0.876415,-0.26795 -0.975074,0 -1.777953,0.78292 -1.777947,1.7612 a 0.26460991,0.26460991 0 0 0 0.270739,0.26516 c 1.721362,-0.0339 3.380461,0.001 5.314305,-0.19538 a 0.26460991,0.26460991 0 0 0 0.228872,-0.19538 c 0.227924,-0.85062 0.0418,-1.49338 -0.354473,-1.87843 -0.396267,-0.38506 -0.943939,-0.51357 -1.41231,-0.51357 z"
           style="color:#000000;font-style:normal;font-variant:normal;font-weight:normal;font-stretch:normal;font-size:medium;line-height:normal;font-family:sans-serif;font-variant-ligatures:normal;font-variant-position:normal;font-variant-caps:normal;font-variant-numeric:normal;font-variant-alternates:normal;font-variant-east-asian:normal;font-feature-settings:normal;font-variation-settings:normal;text-indent:0;text-align:start;text-decoration:none;text-decoration-line:none;text-decoration-style:solid;text-decoration-color:#000000;letter-spacing:normal;word-spacing:normal;text-transform:none;writing-mode:lr-tb;direction:ltr;text-orientation:mixed;dominant-baseline:auto;baseline-shift:baseline;text-anchor:start;white-space:normal;shape-padding:0;shape-margin:0;inline-size:0;clip-rule:nonzero;display:inline;overflow:visible;visibility:visible;isolation:auto;mix-blend-mode:normal;color-interpolation:sRGB;color-interpolation-filters:linearRGB;solid-color:#000000;solid-opacity:1;vector-effect:none;fill:#d0e2ee;fill-opacity:1;fill-rule:nonzero;stroke:none;stroke-width:0.420626;stroke-linecap:round;stroke-linejoin:round;stroke-miterlimit:1.5;stroke-dasharray:none;stroke-dashoffset:0;stroke-opacity:1;color-rendering:auto;image-rendering:auto;shape-rendering:auto;text-rendering:auto;enable-background:accumulate;stop-color:#000000" />
        <path
           id="path1450"
           d="m 33.847656,280.33203 c -1.458127,0 -2.646484,1.18641 -2.646484,2.64453 v 12.96485 c 0,0.43522 0.357742,0.79493 0.792969,0.79492 0.435218,-2e-5 0.794922,-0.3597 0.794921,-0.79492 v -12.69922 c 10e-7,-0.58764 0.47096,-1.0586 1.058594,-1.0586 0.587633,0 1.058593,0.47097 1.058594,1.0586 a 0.26460996,0.26460996 0 0 0 0.263672,0.26367 h 1.322266 a 0.26460996,0.26460996 0 0 0 0.265624,-0.26367 c 0,-0.74681 -0.36989,-1.46559 -0.908203,-2.00391 -0.538312,-0.53832 -1.255146,-0.90625 -2.001953,-0.90625 z"
           style="color:#000000;font-style:normal;font-variant:normal;font-weight:normal;font-stretch:normal;font-size:medium;line-height:normal;font-family:sans-serif;font-variant-ligatures:normal;font-variant-position:normal;font-variant-caps:normal;font-variant-numeric:normal;font-variant-alternates:normal;font-variant-east-asian:normal;font-feature-settings:normal;font-variation-settings:normal;text-indent:0;text-align:start;text-decoration:none;text-decoration-line:none;text-decoration-style:solid;text-decoration-color:#000000;letter-spacing:normal;word-spacing:normal;text-transform:none;writing-mode:lr-tb;direction:ltr;text-orientation:mixed;dominant-baseline:auto;baseline-shift:baseline;text-anchor:start;white-space:normal;shape-padding:0;shape-margin:0;inline-size:0;clip-rule:nonzero;display:inline;overflow:visible;visibility:visible;isolation:auto;mix-blend-mode:normal;color-interpolation:sRGB;color-interpolation-filters:linearRGB;solid-color:#000000;solid-opacity:1;vector-effect:none;fill:#aabfd0;fill-opacity:1;fill-rule:nonzero;stroke:none;stroke-width:0.420626;stroke-linecap:round;stroke-linejoin:round;stroke-miterlimit:1.5;stroke-dasharray:none;stroke-dashoffset:0;stroke-opacity:1;color-rendering:auto;image-rendering:auto;shape-rendering:auto;text-rendering:auto;enable-background:accumulate;stop-color:#000000" />
        <path
           id="path1436"
           d="m 35.335938,282.97656 c -0.234177,0 -0.429688,0.19745 -0.429688,0.43164 v 1.01368 a 0.26460996,0.26460996 0 0 0 0.265625,0.26562 l 1.322266,-0.008 a 0.26460996,0.26460996 0 0 0 0.263671,-0.26367 v -1.00782 c 0,-0.23418 -0.197482,-0.43164 -0.43164,-0.43164 z"
           style="color:#000000;font-style:normal;font-variant:normal;font-weight:normal;font-stretch:normal;font-size:medium;line-height:normal;font-family:sans-serif;font-variant-ligatures:normal;font-variant-position:normal;font-variant-caps:normal;font-variant-numeric:normal;font-variant-alternates:normal;font-variant-east-asian:normal;font-feature-settings:normal;font-variation-settings:normal;text-indent:0;text-align:start;text-decoration:none;text-decoration-line:none;text-decoration-style:solid;text-decoration-color:#000000;letter-spacing:normal;word-spacing:normal;text-transform:none;writing-mode:lr-tb;direction:ltr;text-orientation:mixed;dominant-baseline:auto;baseline-shift:baseline;text-anchor:start;white-space:normal;shape-padding:0;shape-margin:0;inline-size:0;clip-rule:nonzero;display:inline;overflow:visible;visibility:visible;isolation:auto;mix-blend-mode:normal;color-interpolation:sRGB;color-interpolation-filters:linearRGB;solid-color:#000000;solid-opacity:1;vector-effect:none;fill:#7d8e9e;fill-opacity:1;fill-rule:nonzero;stroke:none;stroke-width:0.420626;stroke-linecap:round;stroke-linejoin:round;stroke-miterlimit:1.5;stroke-dasharray:none;stroke-dashoffset:0;stroke-opacity:1;color-rendering:auto;image-rendering:auto;shape-rendering:auto;text-rendering:auto;enable-background:accumulate;stop-color:#000000" />
        <path
           d="m 36.757963,283.63957 -1.851565,0.0269 v 0.75551 a 0.26460996,0.26460996 0 0 0 0.265615,0.26562 l 1.321885,-0.008 a 0.26460996,0.26460996 0 0 0 0.264065,-0.26355 z"
           style="fill:#5b6571;fill-opacity:1;stroke-width:0.420626;stroke-linecap:round;stroke-linejoin:round;stroke-miterlimit:1.5"
           id="path1461" />
        <path
           id="path1422"
           d="m 35.837891,283.96289 c -0.536487,0 -1.003184,0.29556 -1.328125,0.69531 -0.324942,0.39976 -0.52539,0.91201 -0.525391,1.42188 10e-7,0.50987 0.24757,0.89676 0.605469,1.08984 0.357899,0.19309 0.791406,0.23242 1.248047,0.23242 0.45664,0 0.890148,-0.0393 1.248047,-0.23242 0.357898,-0.19308 0.603515,-0.57997 0.603515,-1.08984 0,-0.50987 -0.200449,-1.02212 -0.525391,-1.42188 -0.324941,-0.39975 -0.789685,-0.69531 -1.326171,-0.69531 z"
           style="color:#000000;font-style:normal;font-variant:normal;font-weight:normal;font-stretch:normal;font-size:medium;line-height:normal;font-family:sans-serif;font-variant-ligatures:normal;font-variant-position:normal;font-variant-caps:normal;font-variant-numeric:normal;font-variant-alternates:normal;font-variant-east-asian:normal;font-feature-settings:normal;font-variation-settings:normal;text-indent:0;text-align:start;text-decoration:none;text-decoration-line:none;text-decoration-style:solid;text-decoration-color:#000000;letter-spacing:normal;word-spacing:normal;text-transform:none;writing-mode:lr-tb;direction:ltr;text-orientation:mixed;dominant-baseline:auto;baseline-shift:baseline;text-anchor:start;white-space:normal;shape-padding:0;shape-margin:0;inline-size:0;clip-rule:nonzero;display:inline;overflow:visible;visibility:visible;isolation:auto;mix-blend-mode:normal;color-interpolation:sRGB;color-interpolation-filters:linearRGB;solid-color:#000000;solid-opacity:1;vector-effect:none;fill:#aabfd0;fill-opacity:1;fill-rule:nonzero;stroke:none;stroke-width:0.420626;stroke-linecap:round;stroke-linejoin:round;stroke-miterlimit:1.5;stroke-dasharray:none;stroke-dashoffset:0;stroke-opacity:1;color-rendering:auto;image-rendering:auto;shape-rendering:auto;text-rendering:auto;enable-background:accumulate;stop-color:#000000" />
        <path
           id="path1380"
           d="m 35.699219,295.25195 a 0.2529168,0.2529168 0 0 0 -0.244141,0.31836 l 0.265625,0.9668 a 0.2529168,0.2529168 0 0 0 0.242188,0.1875 h 0.529297 a 0.2529168,0.2529168 0 0 0 0.24414,-0.1875 l 0.265625,-0.9668 a 0.2529168,0.2529168 0 0 0 -0.244141,-0.31836 z"
           style="color:#000000;font-style:normal;font-variant:normal;font-weight:normal;font-stretch:normal;font-size:medium;line-height:normal;font-family:sans-serif;font-variant-ligatures:normal;font-variant-position:normal;font-variant-caps:normal;font-variant-numeric:normal;font-variant-alternates:normal;font-variant-east-asian:normal;font-feature-settings:normal;font-variation-settings:normal;text-indent:0;text-align:start;text-decoration:none;text-decoration-line:none;text-decoration-style:solid;text-decoration-color:#000000;letter-spacing:normal;word-spacing:normal;text-transform:none;writing-mode:lr-tb;direction:ltr;text-orientation:mixed;dominant-baseline:auto;baseline-shift:baseline;text-anchor:start;white-space:normal;shape-padding:0;shape-margin:0;inline-size:0;clip-rule:nonzero;display:inline;overflow:visible;visibility:visible;isolation:auto;mix-blend-mode:normal;color-interpolation:sRGB;color-interpolation-filters:linearRGB;solid-color:#000000;solid-opacity:1;vector-effect:none;fill:#7d8e9e;fill-opacity:1;fill-rule:nonzero;stroke:none;stroke-width:0.402038;stroke-linecap:round;stroke-linejoin:round;stroke-miterlimit:1.5;stroke-dasharray:none;stroke-dashoffset:0;stroke-opacity:1;color-rendering:auto;image-rendering:auto;shape-rendering:auto;text-rendering:auto;enable-background:accumulate;stop-color:#000000" />
        <path
           id="path1386"
           d="m 43.636719,295.25195 a 0.2529168,0.2529168 0 0 0 -0.244141,0.31836 l 0.265625,0.9668 a 0.2529168,0.2529168 0 0 0 0.242188,0.1875 h 0.529297 a 0.2529168,0.2529168 0 0 0 0.24414,-0.1875 l 0.265625,-0.9668 a 0.2529168,0.2529168 0 0 0 -0.244141,-0.31836 z"
           style="color:#000000;font-style:normal;font-variant:normal;font-weight:normal;font-stretch:normal;font-size:medium;line-height:normal;font-family:sans-serif;font-variant-ligatures:normal;font-variant-position:normal;font-variant-caps:normal;font-variant-numeric:normal;font-variant-alternates:normal;font-variant-east-asian:normal;font-feature-settings:normal;font-variation-settings:normal;text-indent:0;text-align:start;text-decoration:none;text-decoration-line:none;text-decoration-style:solid;text-decoration-color:#000000;letter-spacing:normal;word-spacing:normal;text-transform:none;writing-mode:lr-tb;direction:ltr;text-orientation:mixed;dominant-baseline:auto;baseline-shift:baseline;text-anchor:start;white-space:normal;shape-padding:0;shape-margin:0;inline-size:0;clip-rule:nonzero;display:inline;overflow:visible;visibility:visible;isolation:auto;mix-blend-mode:normal;color-interpolation:sRGB;color-interpolation-filters:linearRGB;solid-color:#000000;solid-opacity:1;vector-effect:none;fill:#7d8e9e;fill-opacity:1;fill-rule:nonzero;stroke:none;stroke-width:0.402038;stroke-linecap:round;stroke-linejoin:round;stroke-miterlimit:1.5;stroke-dasharray:none;stroke-dashoffset:0;stroke-opacity:1;color-rendering:auto;image-rendering:auto;shape-rendering:auto;text-rendering:auto;enable-background:accumulate;stop-color:#000000" />
        <path
           id="path1498"
           style="fill:#5b6571;fill-opacity:1;stroke-width:0.420626;stroke-linecap:round;stroke-linejoin:round;stroke-miterlimit:1.5"
           d="m 43.636617,295.25178 a 0.2529168,0.2529168 0 0 0 -0.243911,0.31833 l 0.118337,0.42994 1.296046,0.0512 0.132292,-0.4811 a 0.2529168,0.2529168 0 0 0 -0.243915,-0.31833 z" />
        <path
           d="m 35.699114,295.25178 a 0.2529168,0.2529168 0 0 0 -0.243912,0.31833 l 0.118338,0.42994 1.296045,0.0512 0.132292,-0.4811 a 0.2529168,0.2529168 0 0 0 -0.243914,-0.31833 z"
           style="fill:#5b6571;fill-opacity:1;stroke-width:0.420626;stroke-linecap:round;stroke-linejoin:round;stroke-miterlimit:1.5"
           id="path1493" />
        <path
           id="path1424"
           style="color:#000000;font-style:normal;font-variant:normal;font-weight:normal;font-stretch:normal;font-size:medium;line-height:normal;font-family:sans-serif;font-variant-ligatures:normal;font-variant-position:normal;font-variant-caps:normal;font-variant-numeric:normal;font-variant-alternates:normal;font-variant-east-asian:normal;font-feature-settings:normal;font-variation-settings:normal;text-indent:0;text-align:start;text-decoration:none;text-decoration-line:none;text-decoration-style:solid;text-decoration-color:#000000;letter-spacing:normal;word-spacing:normal;text-transform:none;writing-mode:lr-tb;direction:ltr;text-orientation:mixed;dominant-baseline:auto;baseline-shift:baseline;text-anchor:start;white-space:normal;shape-padding:0;shape-margin:0;inline-size:0;clip-rule:nonzero;display:inline;overflow:visible;visibility:visible;isolation:auto;mix-blend-mode:normal;color-interpolation:sRGB;color-interpolation-filters:linearRGB;solid-color:#000000;solid-opacity:1;vector-effect:none;fill:#aabfd0;fill-opacity:1;fill-rule:nonzero;stroke:none;stroke-width:0.420626;stroke-linecap:round;stroke-linejoin:round;stroke-miterlimit:1.5;stroke-dasharray:none;stroke-dashoffset:0;stroke-opacity:1;color-rendering:auto;image-rendering:auto;shape-rendering:auto;text-rendering:auto;enable-background:accumulate;stop-color:#000000"
           d="m 43.184965,288.12093 c -0.528277,0 -0.917768,0.33203 -1.206645,0.73691 0.196434,-0.12728 0.420155,-0.20774 0.677479,-0.20774 0.46837,0 1.01605,0.1286 1.412316,0.51366 0.346118,0.33632 0.532062,0.86898 0.42168,1.56528 0.07816,-0.007 0.154001,-0.0126 0.233061,-0.0207 0.109654,-0.0112 0.200858,-0.0893 0.228925,-0.19585 0.227926,-0.85062 0.04178,-1.49288 -0.354499,-1.87793 -0.396266,-0.38506 -0.943946,-0.51366 -1.412317,-0.51366 z"
           sodipodi:nodetypes="scscccccss" />
        <path
           sodipodi:nodetypes="ccccccccsccccsccccc"
           id="path1366"
           d="m 34.400391,290.01953 c -0.12812,-0.0149 -0.240371,-0.0143 -0.34961,0.01 -0.109238,0.0241 -0.236052,0.0811 -0.30664,0.21093 -0.09559,0.29366 0.05524,0.46555 0.220744,0.6543 l 0.07031,0.0645 c 0.232363,0.21228 0.374891,0.48541 0.410156,0.7754 l 0.375,3.08007 c 0.06739,0.55407 0.569524,0.95508 1.142579,0.95508 2.822222,10e-6 5.644574,10e-6 8.466797,0 0.573053,0 1.077146,-0.40101 1.144531,-0.95508 l 0.375,-3.08007 c 0.03527,-0.28999 0.17779,-0.56311 0.410156,-0.7754 0.182138,-0.12357 0.298176,-0.31094 0.375,-0.46875 0.01847,-0.11588 -0.03303,-0.25445 -0.117187,-0.33203 -0.168324,-0.15516 -0.368319,-0.15958 -0.623047,-0.12695 -1.010199,0.1295 -2.002842,0.22006 -2.978516,0.27734 l -2.976563,0.0762 c -1.929573,-0.015 -3.801716,-0.15112 -5.638671,-0.36524 z"
           style="color:#000000;font-style:normal;font-variant:normal;font-weight:normal;font-stretch:normal;font-size:medium;line-height:normal;font-family:sans-serif;font-variant-ligatures:normal;font-variant-position:normal;font-variant-caps:normal;font-variant-numeric:normal;font-variant-alternates:normal;font-variant-east-asian:normal;font-feature-settings:normal;font-variation-settings:normal;text-indent:0;text-align:start;text-decoration:none;text-decoration-line:none;text-decoration-style:solid;text-decoration-color:#000000;letter-spacing:normal;word-spacing:normal;text-transform:none;writing-mode:lr-tb;direction:ltr;text-orientation:mixed;dominant-baseline:auto;baseline-shift:baseline;text-anchor:start;white-space:normal;shape-padding:0;shape-margin:0;inline-size:0;clip-rule:nonzero;display:inline;overflow:visible;visibility:visible;isolation:auto;mix-blend-mode:normal;color-interpolation:sRGB;color-interpolation-filters:linearRGB;solid-color:#000000;solid-opacity:1;vector-effect:none;fill:#f5f6e8;fill-opacity:1;fill-rule:nonzero;stroke:none;stroke-width:0.420626;stroke-linecap:round;stroke-linejoin:round;stroke-miterlimit:1.5;stroke-dasharray:none;stroke-dashoffset:0;stroke-opacity:1;color-rendering:auto;image-rendering:auto;shape-rendering:auto;text-rendering:auto;enable-background:accumulate;stop-color:#000000" />
        <path
           id="path1291"
           d="m 40.990234,285.62305 c -0.727495,0 -1.32227,0.59477 -1.322265,1.32226 2e-6,0.72749 0.594775,1.32422 1.322265,1.32422 0.727492,0 1.324217,-0.59673 1.324219,-1.32422 5e-6,-0.72749 -0.596722,-1.32226 -1.324219,-1.32226 z"
           style="color:#000000;font-style:normal;font-variant:normal;font-weight:normal;font-stretch:normal;font-size:medium;line-height:normal;font-family:sans-serif;font-variant-ligatures:normal;font-variant-position:normal;font-variant-caps:normal;font-variant-numeric:normal;font-variant-alternates:normal;font-variant-east-asian:normal;font-feature-settings:normal;font-variation-settings:normal;text-indent:0;text-align:start;text-decoration:none;text-decoration-line:none;text-decoration-style:solid;text-decoration-color:#000000;letter-spacing:normal;word-spacing:normal;text-transform:none;writing-mode:lr-tb;direction:ltr;text-orientation:mixed;dominant-baseline:auto;baseline-shift:baseline;text-anchor:start;white-space:normal;shape-padding:0;shape-margin:0;inline-size:0;clip-rule:nonzero;display:inline;overflow:visible;visibility:visible;isolation:auto;mix-blend-mode:normal;color-interpolation:sRGB;color-interpolation-filters:linearRGB;solid-color:#000000;solid-opacity:1;vector-effect:none;fill:#d0e2ee;fill-opacity:1;fill-rule:nonzero;stroke:none;stroke-width:0.420626;stroke-linecap:round;stroke-linejoin:round;stroke-miterlimit:1.5;stroke-dasharray:none;stroke-dashoffset:0;stroke-opacity:1;color-rendering:auto;image-rendering:auto;shape-rendering:auto;text-rendering:auto;enable-background:accumulate;stop-color:#000000" />
        <path
           id="path1297"
           d="m 42.578125,284.03516 c -0.435239,0 -0.792963,0.35968 -0.792969,0.79492 -2e-6,0.43524 0.357725,0.79297 0.792969,0.79297 0.435244,0 0.794925,-0.35773 0.794922,-0.79297 -6e-6,-0.43524 -0.359684,-0.79492 -0.794922,-0.79492 z"
           style="color:#000000;font-style:normal;font-variant:normal;font-weight:normal;font-stretch:normal;font-size:medium;line-height:normal;font-family:sans-serif;font-variant-ligatures:normal;font-variant-position:normal;font-variant-caps:normal;font-variant-numeric:normal;font-variant-alternates:normal;font-variant-east-asian:normal;font-feature-settings:normal;font-variation-settings:normal;text-indent:0;text-align:start;text-decoration:none;text-decoration-line:none;text-decoration-style:solid;text-decoration-color:#000000;letter-spacing:normal;word-spacing:normal;text-transform:none;writing-mode:lr-tb;direction:ltr;text-orientation:mixed;dominant-baseline:auto;baseline-shift:baseline;text-anchor:start;white-space:normal;shape-padding:0;shape-margin:0;inline-size:0;clip-rule:nonzero;display:inline;overflow:visible;visibility:visible;isolation:auto;mix-blend-mode:normal;color-interpolation:sRGB;color-interpolation-filters:linearRGB;solid-color:#000000;solid-opacity:1;vector-effect:none;fill:#d0e2ee;fill-opacity:1;fill-rule:nonzero;stroke:none;stroke-width:0.420626;stroke-linecap:round;stroke-linejoin:round;stroke-miterlimit:1.5;stroke-dasharray:none;stroke-dashoffset:0;stroke-opacity:1;color-rendering:auto;image-rendering:auto;shape-rendering:auto;text-rendering:auto;enable-background:accumulate;stop-color:#000000" />
        <path
           id="path1301"
           d="m 41.52006,283.24168 v 0"
           style="color:#000000;font-style:normal;font-variant:normal;font-weight:normal;font-stretch:normal;font-size:medium;line-height:normal;font-family:sans-serif;font-variant-ligatures:normal;font-variant-position:normal;font-variant-caps:normal;font-variant-numeric:normal;font-variant-alternates:normal;font-variant-east-asian:normal;font-feature-settings:normal;font-variation-settings:normal;text-indent:0;text-align:start;text-decoration:none;text-decoration-line:none;text-decoration-style:solid;text-decoration-color:#000000;letter-spacing:normal;word-spacing:normal;text-transform:none;writing-mode:lr-tb;direction:ltr;text-orientation:mixed;dominant-baseline:auto;baseline-shift:baseline;text-anchor:start;white-space:normal;shape-padding:0;shape-margin:0;inline-size:0;clip-rule:nonzero;display:inline;overflow:visible;visibility:visible;isolation:auto;mix-blend-mode:normal;color-interpolation:sRGB;color-interpolation-filters:linearRGB;solid-color:#000000;solid-opacity:1;vector-effect:none;fill:#d0e2ee;fill-opacity:1;fill-rule:nonzero;stroke:none;stroke-width:0.420626;stroke-linecap:round;stroke-linejoin:round;stroke-miterlimit:1.5;stroke-dasharray:none;stroke-dashoffset:0;stroke-opacity:1;color-rendering:auto;image-rendering:auto;shape-rendering:auto;text-rendering:auto;enable-background:accumulate;stop-color:#000000" />
        <path
           d="m 33.935398,290.86393 c 0.01053,0.0102 0.01831,0.0208 0.02945,0.031 l 0.07028,0.0641 c 0.168534,0.15397 0.288168,0.34088 0.355534,0.54208 3.54122,0.31995 7.431625,0.33331 11.567253,0.19327 0.04322,-0.27468 0.180131,-0.53308 0.401526,-0.73535 l 0.01291,-0.0119 c -4.118526,0.11922 -8.317926,0.17533 -12.436965,-0.0832 z"
           style="color:#000000;font-style:normal;font-variant:normal;font-weight:normal;font-stretch:normal;font-size:medium;line-height:normal;font-family:sans-serif;font-variant-ligatures:normal;font-variant-position:normal;font-variant-caps:normal;font-variant-numeric:normal;font-variant-alternates:normal;font-variant-east-asian:normal;font-feature-settings:normal;font-variation-settings:normal;text-indent:0;text-align:start;text-decoration:none;text-decoration-line:none;text-decoration-style:solid;text-decoration-color:#000000;letter-spacing:normal;word-spacing:normal;text-transform:none;writing-mode:lr-tb;direction:ltr;text-orientation:mixed;dominant-baseline:auto;baseline-shift:baseline;text-anchor:start;white-space:normal;shape-padding:0;shape-margin:0;inline-size:0;clip-rule:nonzero;display:inline;overflow:visible;visibility:visible;isolation:auto;mix-blend-mode:normal;color-interpolation:sRGB;color-interpolation-filters:linearRGB;solid-color:#000000;solid-opacity:1;vector-effect:none;fill:#deded2;fill-opacity:1;fill-rule:nonzero;stroke:none;stroke-width:0.420626;stroke-linecap:round;stroke-linejoin:round;stroke-miterlimit:1.5;stroke-dasharray:none;stroke-dashoffset:0;stroke-opacity:1;color-rendering:auto;image-rendering:auto;shape-rendering:auto;text-rendering:auto;enable-background:accumulate;stop-color:#000000"
           id="path1484" />
        <path
           d="m 35.819004,291.92433 c -0.352994,0 -0.966861,-0.007 -1.335836,0.11938 l 0.05684,0.46664 c 2.63742,-0.001 5.319665,0.39774 7.576283,1.68723 0.835798,0.4776 1.390542,1.10792 2.242241,1.32085 0.222057,0.0555 0.480494,0.0758 0.731221,0.0512 0.258818,-0.17016 0.445862,-0.43545 0.484724,-0.75499 l 0.185002,-1.52239 c -0.09709,-0.11778 -0.205203,-0.22027 -0.325562,-0.29249 -1.215271,-0.72917 -7.963985,-1.07539 -9.614916,-1.07539 z"
           style="fill:#deded2;fill-opacity:1;stroke-width:0.420626;stroke-linecap:round;stroke-linejoin:round;stroke-miterlimit:1.5"
           id="path1487" />
        <path
           id="path1351"
           d="m 42.640625,289.61133 -1.804687,0.0469 a 0.26460996,0.26460996 0 0 0 -0.25586,0.29883 l 0.4375,3.22266 c 0.04934,0.35299 0.349346,0.62236 0.705078,0.63476 a 0.26460996,0.26460996 0 0 0 0.0098,0 c 0.365472,0 0.680144,-0.26483 0.742187,-0.625 a 0.26460996,0.26460996 0 0 0 0.002,-0.0117 l 0.433594,-3.26757 a 0.26460996,0.26460996 0 0 0 -0.269531,-0.29883 z"
           style="color:#000000;font-style:normal;font-variant:normal;font-weight:normal;font-stretch:normal;font-size:medium;line-height:normal;font-family:sans-serif;font-variant-ligatures:normal;font-variant-position:normal;font-variant-caps:normal;font-variant-numeric:normal;font-variant-alternates:normal;font-variant-east-asian:normal;font-feature-settings:normal;font-variation-settings:normal;text-indent:0;text-align:start;text-decoration:none;text-decoration-line:none;text-decoration-style:solid;text-decoration-color:#000000;letter-spacing:normal;word-spacing:normal;text-transform:none;writing-mode:lr-tb;direction:ltr;text-orientation:mixed;dominant-baseline:auto;baseline-shift:baseline;text-anchor:start;white-space:normal;shape-padding:0;shape-margin:0;inline-size:0;clip-rule:nonzero;display:inline;overflow:visible;visibility:visible;isolation:auto;mix-blend-mode:normal;color-interpolation:sRGB;color-interpolation-filters:linearRGB;solid-color:#000000;solid-opacity:1;vector-effect:none;fill:#d0e2ee;fill-opacity:1;fill-rule:nonzero;stroke:none;stroke-width:0.420626;stroke-linecap:round;stroke-linejoin:round;stroke-miterlimit:1.5;stroke-dasharray:none;stroke-dashoffset:0;stroke-opacity:1;color-rendering:auto;image-rendering:auto;shape-rendering:auto;text-rendering:auto;enable-background:accumulate;stop-color:#000000" />
        <path
           sodipodi:nodetypes="cssccscc"
           d="m 34.262458,285.67553 c -0.03776,0.14846 -0.05925,0.30067 -0.05925,0.45256 2e-6,0.44968 0.218043,0.7909 0.533688,0.96118 0.236734,0.12773 0.511269,0.17915 0.803495,0.19689 0.484378,0.035 0.958391,-0.0124 1.398256,-0.19689 0.315642,-0.17028 0.53232,-0.51151 0.53232,-0.96119 0,-0.15235 -0.02172,-0.30502 -0.05971,-0.45392 -0.968329,0.28058 -2.242483,0.25598 -3.148807,0.002 z"
           style="color:#000000;font-style:normal;font-variant:normal;font-weight:normal;font-stretch:normal;font-size:medium;line-height:normal;font-family:sans-serif;font-variant-ligatures:normal;font-variant-position:normal;font-variant-caps:normal;font-variant-numeric:normal;font-variant-alternates:normal;font-variant-east-asian:normal;font-feature-settings:normal;font-variation-settings:normal;text-indent:0;text-align:start;text-decoration:none;text-decoration-line:none;text-decoration-style:solid;text-decoration-color:#000000;letter-spacing:normal;word-spacing:normal;text-transform:none;writing-mode:lr-tb;direction:ltr;text-orientation:mixed;dominant-baseline:auto;baseline-shift:baseline;text-anchor:start;white-space:normal;shape-padding:0;shape-margin:0;inline-size:0;clip-rule:nonzero;display:inline;overflow:visible;visibility:visible;isolation:auto;mix-blend-mode:normal;color-interpolation:sRGB;color-interpolation-filters:linearRGB;solid-color:#000000;solid-opacity:1;vector-effect:none;fill:#7d8e9e;fill-opacity:1;fill-rule:nonzero;stroke:none;stroke-width:0.420626;stroke-linecap:round;stroke-linejoin:round;stroke-miterlimit:1.5;stroke-dasharray:none;stroke-dashoffset:0;stroke-opacity:1;color-rendering:auto;image-rendering:auto;shape-rendering:auto;text-rendering:auto;enable-background:accumulate;stop-color:#000000"
           id="path1408" />
        <path
           id="path1414"
           style="color:#000000;font-style:normal;font-variant:normal;font-weight:normal;font-stretch:normal;font-size:medium;line-height:normal;font-family:sans-serif;font-variant-ligatures:normal;font-variant-position:normal;font-variant-caps:normal;font-variant-numeric:normal;font-variant-alternates:normal;font-variant-east-asian:normal;font-feature-settings:normal;font-variation-settings:normal;text-indent:0;text-align:start;text-decoration:none;text-decoration-line:none;text-decoration-style:solid;text-decoration-color:#000000;letter-spacing:normal;word-spacing:normal;text-transform:none;writing-mode:lr-tb;direction:ltr;text-orientation:mixed;dominant-baseline:auto;baseline-shift:baseline;text-anchor:start;white-space:normal;shape-padding:0;shape-margin:0;inline-size:0;clip-rule:nonzero;display:inline;overflow:visible;visibility:visible;isolation:auto;mix-blend-mode:normal;color-interpolation:sRGB;color-interpolation-filters:linearRGB;solid-color:#000000;solid-opacity:1;vector-effect:none;fill:#aabfd0;fill-opacity:1;fill-rule:nonzero;stroke:none;stroke-width:0.420626;stroke-linecap:round;stroke-linejoin:round;stroke-miterlimit:1.5;stroke-dasharray:none;stroke-dashoffset:0;stroke-opacity:1;color-rendering:auto;image-rendering:auto;shape-rendering:auto;text-rendering:auto;enable-background:accumulate;stop-color:#000000"
           d="m 42.57828,284.03541 c -0.355341,0 -0.655474,0.24098 -0.754991,0.56586 0.07208,-0.0219 0.146991,-0.0367 0.225824,-0.0367 0.43524,0 0.794777,0.35954 0.794785,0.79478 0,0.0788 -0.0153,0.15374 -0.03721,0.22583 0.325009,-0.0994 0.566378,-0.39956 0.566375,-0.755 -8e-6,-0.43524 -0.359545,-0.79478 -0.794784,-0.79478 z" />
        <path
           id="path1419"
           style="color:#000000;font-style:normal;font-variant:normal;font-weight:normal;font-stretch:normal;font-size:medium;line-height:normal;font-family:sans-serif;font-variant-ligatures:normal;font-variant-position:normal;font-variant-caps:normal;font-variant-numeric:normal;font-variant-alternates:normal;font-variant-east-asian:normal;font-feature-settings:normal;font-variation-settings:normal;text-indent:0;text-align:start;text-decoration:none;text-decoration-line:none;text-decoration-style:solid;text-decoration-color:#000000;letter-spacing:normal;word-spacing:normal;text-transform:none;writing-mode:lr-tb;direction:ltr;text-orientation:mixed;dominant-baseline:auto;baseline-shift:baseline;text-anchor:start;white-space:normal;shape-padding:0;shape-margin:0;inline-size:0;clip-rule:nonzero;display:inline;overflow:visible;visibility:visible;isolation:auto;mix-blend-mode:normal;color-interpolation:sRGB;color-interpolation-filters:linearRGB;solid-color:#000000;solid-opacity:1;vector-effect:none;fill:#aabfd0;fill-opacity:1;fill-rule:nonzero;stroke:none;stroke-width:0.420626;stroke-linecap:round;stroke-linejoin:round;stroke-miterlimit:1.5;stroke-dasharray:none;stroke-dashoffset:0;stroke-opacity:1;color-rendering:auto;image-rendering:auto;shape-rendering:auto;text-rendering:auto;enable-background:accumulate;stop-color:#000000"
           d="m 40.990263,285.62291 c -0.499698,0 -0.931275,0.28408 -1.156002,0.69556 0.187584,-0.10244 0.399037,-0.16639 0.626835,-0.16639 0.727496,0 1.323954,0.59491 1.323949,1.3224 0,0.22812 -0.06393,0.43982 -0.166913,0.62787 0.411621,-0.22544 0.696079,-0.65767 0.696079,-1.15704 6e-6,-0.72749 -0.596452,-1.3224 -1.323948,-1.3224 z" />
      </g>
      <path
         id="path1792"
         style="color:#000000;font-style:normal;font-variant:normal;font-weight:normal;font-stretch:normal;font-size:medium;line-height:normal;font-family:sans-serif;font-variant-ligatures:normal;font-variant-position:normal;font-variant-caps:normal;font-variant-numeric:normal;font-variant-alternates:normal;font-variant-east-asian:normal;font-feature-settings:normal;font-variation-settings:normal;text-indent:0;text-align:start;text-decoration:none;text-decoration-line:none;text-decoration-style:solid;text-decoration-color:#000000;letter-spacing:normal;word-spacing:normal;text-transform:none;writing-mode:lr-tb;direction:ltr;text-orientation:mixed;dominant-baseline:auto;baseline-shift:baseline;text-anchor:start;white-space:normal;shape-padding:0;shape-margin:0;inline-size:0;clip-rule:nonzero;display:inline;overflow:visible;visibility:visible;opacity:1;isolation:auto;mix-blend-mode:normal;color-interpolation:sRGB;color-interpolation-filters:linearRGB;solid-color:#000000;solid-opacity:1;vector-effect:none;fill:#000000;fill-opacity:1;fill-rule:nonzero;stroke:none;stroke-width:0.420626;stroke-linecap:round;stroke-linejoin:round;stroke-miterlimit:1.5;stroke-dasharray:none;stroke-dashoffset:0;stroke-opacity:1;color-rendering:auto;image-rendering:auto;shape-rendering:auto;text-rendering:auto;enable-background:accumulate;stop-color:#000000;stop-opacity:1"
         d="m 34.906397,283.40805 v 0.87385 c -0.147722,0.10704 -0.281614,0.23441 -0.396875,0.3762 -0.324942,0.39976 -0.525031,0.91227 -0.525033,1.42214 2e-6,0.50987 0.247232,0.89678 0.605131,1.08986 0.357899,0.19309 0.791861,0.23202 1.248502,0.23202 0.456642,0 0.890088,-0.0389 1.247987,-0.23202 0.357897,-0.19308 0.603581,-0.57999 0.603581,-1.08986 0,-0.50987 -0.200607,-1.02238 -0.52555,-1.42214 -0.117827,-0.14495 -0.254831,-0.275 -0.406178,-0.38343 v -0.86662 c 0,-0.0585 -0.01243,-0.11444 -0.0173,-0.16588 0.0173,-0.74681 -0.352848,-1.46569 -0.891161,-2.00401 -0.538311,-0.53832 -1.255139,-0.90589 -2.001946,-0.90589 -1.458127,0 -2.646349,1.18616 -2.646349,2.64428 v 12.9651 c 0,0.43522 0.357494,0.7948 0.792718,0.79479 0.435218,-1e-5 0.7953,-0.35957 0.795298,-0.79479 v -12.69948 c 2e-6,-0.58764 0.470701,-1.05833 1.058333,-1.05833 0.587634,0 1.058849,0.4707 1.075904,1.05833 -0.0049,0.0514 -0.01704,0.10733 -0.01704,0.16588 z m -1.058851,-2.54661 c 0.56833,0 1.17303,0.29607 1.628841,0.75189 0.385318,0.38532 0.654478,0.87701 0.729154,1.36322 h -0.794266 c -0.127555,-0.7479 -0.780811,-1.3224 -1.563729,-1.3224 -0.873618,0 -1.588014,0.7144 -1.588016,1.58802 v 12.69948 c 0,0.14924 -0.116375,0.26562 -0.265616,0.26562 -0.149238,0 -0.263551,-0.11639 -0.263551,-0.26562 v -12.9651 c 0,-1.17214 0.945041,-2.11511 2.117183,-2.11511 z m 7.671885,2.11511 c -0.146127,5.9e-4 -0.264123,0.11949 -0.263552,0.26562 5.3e-4,0.14532 0.118232,0.26298 0.263552,0.26355 0.146124,5.8e-4 0.265046,-0.11742 0.265615,-0.26355 5.29e-4,-0.14693 -0.118681,-0.26619 -0.265615,-0.26562 z m -6.083867,0.52917 h 0.792716 v 0.51056 c -0.124908,-0.0344 -0.255067,-0.0532 -0.390158,-0.0532 -0.139252,0 -0.273968,0.0204 -0.402558,0.0568 z m 7.142716,0.52968 c -0.435239,0 -0.793226,0.35955 -0.793234,0.79479 0,0.43524 0.357989,0.79271 0.793234,0.79271 0.435245,0 0.794787,-0.35747 0.794785,-0.79271 -8e-6,-0.43524 -0.359545,-0.79479 -0.794785,-0.79479 z m -6.740158,0.45682 c 0.340265,0 0.666086,0.19261 0.915707,0.49971 0.155287,0.19104 0.268423,0.42426 0.336413,0.66095 -0.853059,0.32501 -1.655144,0.32838 -2.50734,0.002 0.06791,-0.23723 0.181298,-0.47103 0.336931,-0.6625 0.249621,-0.3071 0.578025,-0.49971 0.918289,-0.49971 z m 6.740158,0.0724 c 0.14926,0 0.265615,0.11636 0.265618,0.26562 0,0.14926 -0.116358,0.26355 -0.265618,0.26355 -0.149259,0 -0.264067,-0.11429 -0.264067,-0.26355 2e-6,-0.14926 0.11481,-0.26562 0.264067,-0.26562 z m -1.588016,1.05833 c -0.727496,0 -1.322406,0.59491 -1.322401,1.3224 3e-6,0.72749 0.59491,1.32447 1.322401,1.32447 0.727491,0 1.323949,-0.59698 1.323949,-1.32447 5e-6,-0.72749 -0.596453,-1.3224 -1.323949,-1.3224 z m 0,0.52969 c 0.44151,0 0.794787,0.3512 0.794782,0.79271 0,0.44151 -0.353274,0.79479 -0.794782,0.79479 -0.441508,0 -0.793232,-0.35328 -0.793234,-0.79479 -3e-6,-0.44151 0.351724,-0.79271 0.793234,-0.79271 z m -6.466271,0.0429 c 0.875826,0.3031 1.751163,0.3019 2.626196,0.001 -0.02365,0.27551 -0.12632,0.40602 -0.316262,0.5085 -0.216662,0.11689 -0.575694,0.16794 -0.995805,0.16794 -0.42011,0 -0.781724,-0.0511 -0.998389,-0.16794 -0.190169,-0.1026 -0.292267,-0.23331 -0.31574,-0.50953 z m 2.790526,1.55236 c -0.02379,2.6e-4 -0.04743,0.004 -0.07028,0.0103 -0.140494,0.0385 -0.223423,0.18336 -0.185518,0.32401 l 0.136427,0.5116 c 0.03851,0.14075 0.183703,0.22375 0.324527,0.18552 0.14133,-0.0376 0.225348,-0.18273 0.187584,-0.32401 l -0.139009,-0.50953 c -0.03032,-0.11553 -0.134292,-0.19642 -0.25373,-0.19741 z m -3.037026,0.002 c -0.0065,-7e-5 -0.0131,1.1e-4 -0.01963,5.3e-4 -0.113037,0.007 -0.208825,0.0859 -0.23823,0.19534 l -0.136941,0.51004 c -0.03776,0.14129 0.04625,0.28641 0.187585,0.32401 0.140657,0.0379 0.285496,-0.045 0.324011,-0.18552 l 0.136943,-0.51159 c 0.03809,-0.14146 -0.046,-0.28694 -0.187587,-0.32453 -0.02162,-0.006 -0.04384,-0.008 -0.06615,-0.008 z m 0.988055,0.25475 c -0.146934,-5.8e-4 -0.266192,0.11869 -0.265618,0.26562 v 0.52917 c 5.3e-4,0.14612 0.119491,0.26412 0.265618,0.26355 0.14532,-5.6e-4 0.262983,-0.11823 0.263549,-0.26355 v -0.52917 c 5.29e-4,-0.14613 -0.117425,-0.26505 -0.263549,-0.26562 z m 1.058849,0 c -0.146933,-5.8e-4 -0.266189,0.11869 -0.265615,0.26562 v 0.52917 c 5.29e-4,0.14612 0.119491,0.26412 0.265615,0.26355 0.14532,-5.6e-4 0.262986,-0.11823 0.263552,-0.26355 v -0.52917 c 5.82e-4,-0.14613 -0.117425,-0.26505 -0.263552,-0.26562 z m 6.859014,0.11679 c -0.654264,0 -1.200253,0.40184 -1.508434,0.91881 -0.231614,-0.10388 -0.488699,-0.16278 -0.759127,-0.16278 -0.881857,0 -1.619856,0.64157 -1.753383,1.48776 -1.62087,-0.0432 -3.205195,-0.16322 -4.761982,-0.34468 v -5.3e-4 c -0.128119,-0.0149 -0.240612,-0.0145 -0.349851,0.01 -0.109238,0.0241 -0.235852,0.0815 -0.30644,0.21136 -0.07059,0.12988 -0.04438,0.27962 0.0057,0.3824 0.05002,0.10278 0.121714,0.18662 0.214974,0.27182 l 0.07028,0.0641 c 0.232362,0.21228 0.375044,0.48567 0.410311,0.77566 l 0.374655,3.07992 c 0.04732,0.38903 0.311425,0.69882 0.661458,0.85111 l 0.23926,0.87178 c 0.02941,0.10983 0.128149,0.18611 0.241848,0.18707 h 0.529683 c 0.114424,-8e-5 0.214315,-0.0766 0.243911,-0.18707 l 0.210841,-0.76791 c 2.166813,0 4.333566,0 6.500379,0 l 0.210839,0.76791 c 0.02941,0.10983 0.128148,0.18611 0.241847,0.18707 h 0.529683 c 0.114424,-8e-5 0.214315,-0.0766 0.243911,-0.18707 l 0.239779,-0.87281 c 0.349541,-0.15264 0.613725,-0.46184 0.660942,-0.85008 l 0.374656,-3.07992 c 0.03527,-0.28999 0.177943,-0.56337 0.41031,-0.77566 l 0.224793,-0.20671 c 0.06945,-0.0635 0.131903,-0.14611 0.150378,-0.262 0.01847,-0.11588 -0.03315,-0.25418 -0.117305,-0.33176 -0.168326,-0.15516 -0.368491,-0.15975 -0.623218,-0.12712 -0.324806,0.0416 -0.647221,0.0778 -0.968418,0.11162 0.09129,-0.66835 -0.09134,-1.18297 -0.427881,-1.50999 -0.396267,-0.38505 -0.946013,-0.51211 -1.414383,-0.51211 z m 0,0.52969 c 0.366919,0 0.788109,0.11376 1.044898,0.36328 0.234704,0.22806 0.377473,0.57245 0.25218,1.18442 -0.492501,0.0455 -0.980951,0.0822 -1.465027,0.11059 l -2.976563,0.076 c -0.115044,-9e-4 -0.227973,-0.006 -0.342614,-0.008 0.119165,-0.56188 0.614669,-0.971 1.219565,-0.971 0.4299,0 0.798854,0.19442 1.021644,0.4961 0.08658,0.11854 0.253055,0.14418 0.371036,0.0568 0.117911,-0.0872 0.142528,-0.25355 0.05478,-0.37103 -0.07116,-0.0964 -0.153455,-0.18346 -0.242879,-0.26252 0.224017,-0.37925 0.628687,-0.6749 1.062984,-0.6749 z m -3.148129,2.26342 c 0.0033,6e-5 0.0065,6e-5 0.0098,0 l 0.576194,-0.0145 0.139009,0.80099 c -1.903187,0.0222 -3.936584,-0.13835 -5.907132,-0.47801 -0.101016,-0.24534 -0.257742,-0.46913 -0.472321,-0.66507 1.831051,0.20303 3.713564,0.3415 5.654434,0.35656 z m 5.506125,0.30903 c -0.898596,0.16089 -1.879745,0.28049 -2.79001,0.36018 l 0.128156,-0.74155 0.147797,-0.004 c 0.0033,6e-5 0.0065,6e-5 0.0098,0 0.973978,-0.057 1.964327,-0.14949 2.968553,-0.27363 -0.206647,0.18913 -0.363305,0.4131 -0.464312,0.65862 z m -4.385263,-0.33073 h 1.177706 l -0.380854,2.2071 c -0.01857,0.10773 -0.107969,0.17902 -0.216525,0.1819 -0.09964,-0.006 -0.179348,-0.0745 -0.19327,-0.17415 -5.29e-4,-0.003 -0.0013,-0.007 -0.0021,-0.01 z m 1.318263,2.29702 0.188103,-1.08883 c 0.887254,-0.0746 1.84766,-0.18832 2.750736,-0.34158 l -0.364318,2.9931 c -0.03242,0.26653 -0.28837,0.48834 -0.619083,0.48834 -2.822223,10e-6 -5.644447,10e-6 -8.466667,0 -0.330716,0 -0.585118,-0.2218 -0.617535,-0.48834 l -0.364316,-2.99517 c 1.962415,0.32481 3.976532,0.47581 5.866826,0.44856 l 0.169498,0.9741 c 0.04934,0.35296 0.348679,0.62317 0.709777,0.6351 0.370374,0 0.684932,-0.26511 0.746979,-0.62528 z m -6.440429,2.5802 c 0.129706,0 0.259413,0 0.389122,0 l -0.122473,0.44958 h -0.144176 z m 7.9375,0 c 0.129707,0 0.259413,0 0.389123,0 l -0.122473,0.44958 h -0.144177 z"
         sodipodi:nodetypes="scsscscsscscsssssccscsssccscsssssssssscccsccssssscscccccsssssssssssssssscsscsscccccccccccccccccccsccsccssccsccsccsccccccccccccccccccccccccccssccsccssccccsccccssccccccccccccccccccccccccccscccccccccccccccc" />
    </g>
  </g>
</svg>
