<?xml version="1.0" encoding="utf-8"?>
<!-- Generator: Adobe Illustrator 16.0.0, SVG Export Plug-In . SVG Version: 6.00 Build 0)  -->
<!DOCTYPE svg PUBLIC "-//W3C//DTD SVG 1.1//EN" "http://www.w3.org/Graphics/SVG/1.1/DTD/svg11.dtd">
<svg version="1.1" id="Layer_1" xmlns="http://www.w3.org/2000/svg" xmlns:xlink="http://www.w3.org/1999/xlink" x="0px" y="0px"
	 width="64px" height="64px" viewBox="0 0 64 64" enable-background="new 0 0 64 64" xml:space="preserve">
<g id="Rectangle_29">
	<g>
		<path fill="#BC9E85" d="M3,59h26V27H3V59z M57,27v36h4V27H57z"/>
	</g>
</g>
<g id="Rectangle_55">
	<g>
		<path fill="#E1C5AD" d="M7,31v10h18V31H7z M7,55h18V45H7V55z"/>
	</g>
</g>
<g id="Rectangle_54">
	<g>
		<rect x="7" y="9" fill="#FFFFFF" width="12" height="14"/>
	</g>
</g>
<g id="Rectangle_39">
	<g>
		<rect x="31" y="1" fill="#CFEDFA" width="26" height="16"/>
	</g>
</g>
<g id="Rectangle_28">
	<g>
		<path fill="#BC9E85" d="M1,23v4h62v-4H1z M5,63h4v-4H5V63z M23,63h4v-4h-4V63z"/>
	</g>
</g>
<g id="Rectangle_56">
	<g>
		<rect x="7" y="1" fill="#A0A8B6" width="12" height="8"/>
	</g>
</g>
<g id="Rectangle_57">
	<g>
		<rect x="29" y="27" fill="#7D624B" width="28" height="8"/>
	</g>
</g>
<g id="Rounded_Rectangle_23">
	<g>
		<path fill="#2B3139" d="M62,22H45v-4h11c1.104,0,2-0.896,2-2V2c0-1.104-0.896-2-2-2H32c-1.104,0-2,0.896-2,2v14
			c0,1.104,0.896,2,2,2h11v4H20V1c0-0.553-0.447-1-1-1H7C6.447,0,6,0.447,6,1v21H2c-1.104,0-2,0.896-2,2v2c0,1.104,0.896,2,2,2v31
			c0,0.552,0.447,1,1,1h1v2c0,1.104,0.896,2,2,2h2c1.104,0,2-0.896,2-2v-2h12v2c0,1.104,0.896,2,2,2h2c1.104,0,2-0.896,2-2v-2h1
			c0.553,0,1-0.448,1-1V36h26v27c0,0.553,0.447,1,1,1h4c0.553,0,1-0.447,1-1V28c1.104,0,2-0.896,2-2v-2C64,22.896,63.104,22,62,22z
			 M32,16V2h24v14H32z M8,2h10v2H8V2z M8,6h10v2H8V6z M8,10h10v12H8V10z M8,62H6v-2h2V62z M26,62h-2v-2h2V62z M28,58H4V28h24V58z
			 M56,34H30v-6h26V34z M60,62h-2V28h2V62z M62,26H2v-2h60V26z M35.486,6.731l1.245-1.245c0.345-0.344,0.345-0.901,0-1.246
			c-0.344-0.344-0.901-0.344-1.245,0L34.24,5.486c-0.344,0.344-0.344,0.901,0,1.245C34.585,7.076,35.143,7.076,35.486,6.731z
			 M40.486,4.24l-6.246,6.246c-0.344,0.344-0.344,0.901,0,1.245c0.345,0.345,0.902,0.345,1.246,0l6.245-6.245
			c0.345-0.344,0.345-0.901,0-1.246C41.388,3.896,40.83,3.896,40.486,4.24z M26,30H6v12h20V30z M24,40H8v-8h16V40z M26,44H6v12h20
			V44z M24,54H8v-8h16V54z M14,51h4c0.553,0,1-0.448,1-1c0-0.553-0.447-1-1-1h-4c-0.553,0-1,0.447-1,1C13,50.552,13.447,51,14,51z
			 M14,37h4c0.553,0,1-0.447,1-1s-0.447-1-1-1h-4c-0.553,0-1,0.447-1,1S13.447,37,14,37z M13,15c-1.104,0-2,0.896-2,2s0.896,2,2,2
			s2-0.896,2-2S14.104,15,13,15z"/>
	</g>
</g>
</svg>
